<svg width="16" height="16" viewBox="0 0 16 16" fill="none" xmlns="http://www.w3.org/2000/svg">
<g clip-path="url(#clip0_67_12)">
<path fill-rule="evenodd" clip-rule="evenodd" d="M12.5001 6.56062L8.00012 2.06062L3.50012 6.56062V13.5H6.00012V11C6.00012 9.89539 6.89555 8.99996 8.00012 8.99996C9.10469 8.99996 10.0001 9.89539 10.0001 11V13.5H12.5001V6.56062ZM13.7801 5.71933L8.70722 0.646409C8.3167 0.255886 7.68353 0.255883 7.29301 0.646409L2.21998 5.71944C2.2201 5.71932 2.21985 5.71957 2.21998 5.71944L0.469783 7.46963L-0.0605469 7.99996L1.00012 9.06062L1.53045 8.53029L2.00012 8.06062V14.25V15H2.75012H6.00012H7.50012H8.50012H10.0001H13.2501H14.0001V14.25V8.06062L14.4698 8.53029L15.0001 9.06062L16.0608 7.99996L15.5304 7.46963L13.7801 5.71933C13.7803 5.71953 13.7799 5.71913 13.7801 5.71933ZM8.50012 11V13.5H7.50012V11C7.50012 10.7238 7.72397 10.5 8.00012 10.5C8.27626 10.5 8.50012 10.7238 8.50012 11Z" fill="#171717"/>
</g>
<defs>
<clipPath id="clip0_67_12">
<rect width="16" height="16" fill="white"/>
</clipPath>
</defs>
</svg>
