<svg width="20" height="20" viewBox="0 0 20 20" fill="none" xmlns="http://www.w3.org/2000/svg">
<path d="M11.9801 3.49508C12.0555 3.19345 11.9124 2.87974 11.6352 2.73897C11.3579 2.5982 11.0203 2.66775 10.8212 2.9066L4.15453 10.9066C3.98893 11.1053 3.95323 11.3819 4.06295 11.6162C4.17267 11.8504 4.40799 12.0001 4.66667 12.0001H9.14613L8.01991 16.5051C7.94451 16.8067 8.08761 17.1204 8.36483 17.2611C8.64206 17.4019 8.9798 17.3324 9.1788 17.0935L15.8455 9.09353C16.0111 8.8948 16.0468 8.61821 15.9371 8.38396C15.8273 8.1497 15.592 8.00006 15.3333 8.00006H10.8539L11.9801 3.49508Z" fill="#171717"/>
</svg>
