<svg width="114" height="26" viewBox="0 0 114 26" fill="none" xmlns="http://www.w3.org/2000/svg">
<path d="M34.58 19V5.32H37.2V19H34.58ZM32.32 11.64V9.34H39.46V11.64H32.32ZM44.5191 19.2C43.5057 19.2 42.6057 18.9867 41.8191 18.56C41.0324 18.12 40.4057 17.52 39.9391 16.76C39.4857 16 39.2591 15.1333 39.2591 14.16C39.2591 13.2 39.4791 12.3467 39.9191 11.6C40.3724 10.84 40.9857 10.24 41.7591 9.8C42.5324 9.34667 43.3924 9.12 44.3391 9.12C45.2724 9.12 46.0924 9.33333 46.7991 9.76C47.5191 10.1733 48.0791 10.7467 48.4791 11.48C48.8924 12.2 49.0991 13.02 49.0991 13.94C49.0991 14.1133 49.0857 14.2933 49.0591 14.48C49.0457 14.6533 49.0124 14.8533 48.9591 15.08L40.8391 15.1V13.14L47.7391 13.12L46.6791 13.94C46.6524 13.3667 46.5457 12.8867 46.3591 12.5C46.1857 12.1133 45.9257 11.82 45.5791 11.62C45.2457 11.4067 44.8324 11.3 44.3391 11.3C43.8191 11.3 43.3657 11.42 42.9791 11.66C42.5924 11.8867 42.2924 12.2133 42.0791 12.64C41.8791 13.0533 41.7791 13.5467 41.7791 14.12C41.7791 14.7067 41.8857 15.22 42.0991 15.66C42.3257 16.0867 42.6457 16.42 43.0591 16.66C43.4724 16.8867 43.9524 17 44.4991 17C44.9924 17 45.4391 16.92 45.8391 16.76C46.2391 16.5867 46.5857 16.3333 46.8791 16L48.4191 17.54C47.9524 18.0867 47.3791 18.5 46.6991 18.78C46.0324 19.06 45.3057 19.2 44.5191 19.2ZM49.9194 19V9.34H52.5394V19H49.9194ZM56.2194 19V13.3C56.2194 12.74 56.0394 12.3067 55.6794 12C55.3327 11.68 54.8994 11.52 54.3794 11.52C54.0327 11.52 53.7194 11.5933 53.4394 11.74C53.1594 11.8733 52.9394 12.0733 52.7794 12.34C52.6194 12.6067 52.5394 12.9267 52.5394 13.3L51.5194 12.8C51.5194 12.0533 51.6794 11.4067 51.9994 10.86C52.3327 10.3133 52.7794 9.89333 53.3394 9.6C53.8994 9.29333 54.5327 9.14 55.2394 9.14C55.906 9.14 56.5127 9.29333 57.0594 9.6C57.606 9.89333 58.0394 10.3133 58.3594 10.86C58.6794 11.3933 58.8394 12.04 58.8394 12.8V19H56.2194ZM62.5194 19V13.3C62.5194 12.74 62.3394 12.3067 61.9794 12C61.6327 11.68 61.1994 11.52 60.6794 11.52C60.346 11.52 60.0327 11.5933 59.7394 11.74C59.4594 11.8733 59.2394 12.0733 59.0794 12.34C58.9194 12.6067 58.8394 12.9267 58.8394 13.3L57.3394 12.94C57.3927 12.1667 57.5994 11.5 57.9594 10.94C58.3194 10.3667 58.7927 9.92667 59.3794 9.62C59.966 9.3 60.6194 9.14 61.3394 9.14C62.0594 9.14 62.706 9.29333 63.2794 9.6C63.8527 9.89333 64.306 10.32 64.6394 10.88C64.9727 11.44 65.1394 12.1067 65.1394 12.88V19H62.5194ZM71.8231 19.2C71.1298 19.2 70.5031 19.06 69.9431 18.78C69.3831 18.4867 68.9365 18.0933 68.6031 17.6C68.2698 17.1067 68.0898 16.54 68.0631 15.9V12.48C68.0898 11.84 68.2698 11.2733 68.6031 10.78C68.9498 10.2733 69.3965 9.87333 69.9431 9.58C70.5031 9.28667 71.1298 9.14 71.8231 9.14C72.7165 9.14 73.5165 9.36 74.2231 9.8C74.9298 10.24 75.4831 10.84 75.8831 11.6C76.2965 12.36 76.5031 13.22 76.5031 14.18C76.5031 15.1267 76.2965 15.98 75.8831 16.74C75.4831 17.5 74.9298 18.1 74.2231 18.54C73.5165 18.98 72.7165 19.2 71.8231 19.2ZM66.4631 23.04V9.34H69.0831V11.88L68.6431 14.22L69.0631 16.56V23.04H66.4631ZM71.3631 16.78C71.8431 16.78 72.2698 16.6733 72.6431 16.46C73.0165 16.2333 73.3031 15.9267 73.5031 15.54C73.7165 15.14 73.8231 14.68 73.8231 14.16C73.8231 13.6533 73.7165 13.2067 73.5031 12.82C73.3031 12.42 73.0165 12.1133 72.6431 11.9C72.2698 11.6733 71.8431 11.56 71.3631 11.56C70.8965 11.56 70.4765 11.6733 70.1031 11.9C69.7298 12.1133 69.4365 12.42 69.2231 12.82C69.0231 13.2067 68.9231 13.6533 68.9231 14.16C68.9231 14.68 69.0231 15.14 69.2231 15.54C69.4365 15.9267 69.7231 16.2333 70.0831 16.46C70.4565 16.6733 70.8831 16.78 71.3631 16.78ZM82.7809 19.2C82.0876 19.2 81.4609 19.0533 80.9009 18.76C80.3409 18.4667 79.8943 18.0667 79.5609 17.56C79.2276 17.0533 79.0476 16.4867 79.0209 15.86V12.42C79.0476 11.7933 79.2276 11.2333 79.5609 10.74C79.9076 10.2333 80.3609 9.84 80.9209 9.56C81.4809 9.28 82.1009 9.14 82.7809 9.14C83.6743 9.14 84.4743 9.36 85.1809 9.8C85.8876 10.24 86.4409 10.84 86.8409 11.6C87.2543 12.36 87.4609 13.22 87.4609 14.18C87.4609 15.1267 87.2543 15.98 86.8409 16.74C86.4409 17.5 85.8876 18.1 85.1809 18.54C84.4743 18.98 83.6743 19.2 82.7809 19.2ZM77.4209 19V4.54H80.0409V11.72L79.6009 14.04L80.0209 16.4V19H77.4209ZM82.3409 16.78C82.8209 16.78 83.2409 16.6733 83.6009 16.46C83.9743 16.2333 84.2609 15.9267 84.4609 15.54C84.6743 15.14 84.7809 14.68 84.7809 14.16C84.7809 13.6533 84.6743 13.2067 84.4609 12.82C84.2609 12.42 83.9743 12.1133 83.6009 11.9C83.2276 11.6733 82.8009 11.56 82.3209 11.56C81.8409 11.56 81.4143 11.6733 81.0409 11.9C80.6809 12.1133 80.3943 12.42 80.1809 12.82C79.9809 13.2067 79.8809 13.6533 79.8809 14.16C79.8809 14.68 79.9809 15.14 80.1809 15.54C80.3943 15.9267 80.6876 16.2333 81.0609 16.46C81.4343 16.6733 81.8609 16.78 82.3409 16.78ZM88.3788 19V9.34H90.9988V19H88.3788ZM90.9988 13.66L89.9788 12.98C90.0988 11.7933 90.4454 10.86 91.0188 10.18C91.5921 9.48667 92.4188 9.14 93.4988 9.14C93.9654 9.14 94.3854 9.22 94.7588 9.38C95.1321 9.52667 95.4721 9.77333 95.7788 10.12L94.1388 12C93.9921 11.84 93.8121 11.72 93.5988 11.64C93.3988 11.56 93.1654 11.52 92.8988 11.52C92.3388 11.52 91.8788 11.7 91.5188 12.06C91.1721 12.4067 90.9988 12.94 90.9988 13.66ZM100.166 19.2C99.1923 19.2 98.3123 18.98 97.5256 18.54C96.7523 18.0867 96.1323 17.48 95.6656 16.72C95.2123 15.9467 94.9856 15.0867 94.9856 14.14C94.9856 13.1933 95.2123 12.3467 95.6656 11.6C96.119 10.84 96.739 10.24 97.5256 9.8C98.3123 9.34667 99.1856 9.12 100.146 9.12C101.132 9.12 102.012 9.34667 102.786 9.8C103.572 10.24 104.192 10.84 104.646 11.6C105.099 12.3467 105.326 13.1933 105.326 14.14C105.326 15.0867 105.099 15.9467 104.646 16.72C104.192 17.48 103.572 18.0867 102.786 18.54C102.012 18.98 101.139 19.2 100.166 19.2ZM100.146 16.76C100.639 16.76 101.072 16.6533 101.446 16.44C101.832 16.2133 102.126 15.9067 102.326 15.52C102.539 15.12 102.646 14.6667 102.646 14.16C102.646 13.6533 102.539 13.2067 102.326 12.82C102.112 12.4333 101.819 12.1333 101.446 11.92C101.072 11.6933 100.639 11.58 100.146 11.58C99.6656 11.58 99.239 11.6933 98.8656 11.92C98.4923 12.1333 98.199 12.4333 97.9856 12.82C97.7723 13.2067 97.6656 13.6533 97.6656 14.16C97.6656 14.6667 97.7723 15.12 97.9856 15.52C98.199 15.9067 98.4923 16.2133 98.8656 16.44C99.239 16.6533 99.6656 16.76 100.146 16.76ZM109.532 19.22C108.986 19.22 108.446 19.1467 107.912 19C107.392 18.8533 106.912 18.6533 106.472 18.4C106.032 18.1333 105.652 17.8133 105.332 17.44L106.892 15.86C107.226 16.2333 107.612 16.5133 108.052 16.7C108.492 16.8867 108.979 16.98 109.512 16.98C109.939 16.98 110.259 16.92 110.472 16.8C110.699 16.68 110.812 16.5 110.812 16.26C110.812 15.9933 110.692 15.7867 110.452 15.64C110.226 15.4933 109.926 15.3733 109.552 15.28C109.179 15.1733 108.786 15.06 108.372 14.94C107.972 14.8067 107.586 14.64 107.212 14.44C106.839 14.2267 106.532 13.94 106.292 13.58C106.066 13.2067 105.952 12.7267 105.952 12.14C105.952 11.5267 106.099 10.9933 106.392 10.54C106.699 10.0867 107.132 9.73333 107.692 9.48C108.252 9.22667 108.912 9.1 109.672 9.1C110.472 9.1 111.192 9.24 111.832 9.52C112.486 9.8 113.026 10.22 113.452 10.78L111.872 12.36C111.579 12 111.246 11.74 110.872 11.58C110.512 11.42 110.119 11.34 109.692 11.34C109.306 11.34 109.006 11.4 108.792 11.52C108.592 11.64 108.492 11.8067 108.492 12.02C108.492 12.26 108.606 12.4467 108.832 12.58C109.072 12.7133 109.379 12.8333 109.752 12.94C110.126 13.0333 110.512 13.1467 110.912 13.28C111.326 13.4 111.712 13.5733 112.072 13.8C112.446 14.0267 112.746 14.3267 112.972 14.7C113.212 15.0733 113.332 15.5533 113.332 16.14C113.332 17.0867 112.992 17.84 112.312 18.4C111.632 18.9467 110.706 19.22 109.532 19.22Z" fill="#171717"/>
<circle cx="12" cy="12" r="12" fill="#D2FF37"/>
<path d="M13.4851 7.1213C13.5417 6.89507 13.4343 6.65979 13.2264 6.55421C13.0185 6.44863 12.7652 6.5008 12.6159 6.67994L7.6159 12.6799C7.4917 12.829 7.46492 13.0364 7.54721 13.2121C7.6295 13.3878 7.806 13.5 8.00001 13.5H11.3596L10.5149 16.8788C10.4584 17.105 10.5657 17.3403 10.7736 17.4458C10.9815 17.5514 11.2349 17.4993 11.3841 17.3201L16.3841 11.3201C16.5083 11.1711 16.5351 10.9636 16.4528 10.788C16.3705 10.6123 16.194 10.5 16 10.5H12.6404L13.4851 7.1213Z" fill="#171717"/>
</svg>
