<svg width="20" height="20" viewBox="0 0 20 20" fill="none" xmlns="http://www.w3.org/2000/svg">
<path fill-rule="evenodd" clip-rule="evenodd" d="M3.5 8.5C3.5 5.73858 5.73858 3.5 8.5 3.5C11.2614 3.5 13.5 5.73858 13.5 8.5C13.5 11.2614 11.2614 13.5 8.5 13.5C5.73858 13.5 3.5 11.2614 3.5 8.5ZM8.5 2C4.91015 2 2 4.91015 2 8.5C2 12.0899 4.91015 15 8.5 15C10.0247 15 11.4268 14.475 12.5353 13.596L15.9697 17.0303L16.5 17.5607L17.5607 16.5L17.0303 15.9697L13.596 12.5353C14.475 11.4268 15 10.0247 15 8.5C15 4.91015 12.0899 2 8.5 2Z" fill="#A1A1A1"/>
</svg>
